<?xml version="1.0" encoding="utf-8"?>
<!-- Generator: Adobe Illustrator 27.4.0, SVG Export Plug-In . SVG Version: 6.00 Build 0)  -->
<svg version="1.1" id="Layer_1" xmlns="http://www.w3.org/2000/svg" xmlns:xlink="http://www.w3.org/1999/xlink" x="0px" y="0px"
	 viewBox="0 0 1317.3 405.3" style="enable-background:new 0 0 1317.3 405.3;" xml:space="preserve">
<style type="text/css">
	.st0{fill:#FFFFFF;}
	.st1{fill:#FDDB32;}
	.st2{fill:#191E3B;}
</style>
<g>
	<g>
		<g>
			<path class="st0" d="M517.8,137.1l44.6-61.6c1.3-1.9,0.3-3.8-1.9-3.8h-24.3c-1.3,0-3,0.5-3.8,1.9L503,116.5l-30.1-42.9
				c-0.8-1.3-2.4-1.9-3.8-1.9h-25.9c-1.3,0-2.2,1.1-2.2,2.2c0,0.5,0,1.1,0.5,1.6l44.7,61.8l-49.3,67.8c-1.3,1.9-0.3,3.8,1.6,3.8H463
				c1.3,0,3-0.5,3.8-1.9l34.1-49.1l34.6,49.1c0.8,1.4,2.4,1.9,3.8,1.9h26.4c1.3,0,2.2-1.1,2.2-2.2c0-0.5-0.3-1.1-0.5-1.6
				L517.8,137.1z"/>
			<path class="st0" d="M418.2,20.2c1.9,0,3.2,1.3,3.2,3.2v18.3c0,1.9-1.3,3.2-3.2,3.2h-87.1v54.4h78.2c1.9,0,3.2,1.3,3.2,3.2v18.1
				c0,1.9-1.3,3.2-3.2,3.2h-78.2v59.6h87.1c1.9,0,3.2,1.3,3.2,3.2v19.1c0,1.9-1.3,3.2-3.2,3.2H316.3c-7.8,0-13.7-5.9-13.7-13.7V34
				c0-7.8,5.9-13.7,13.7-13.7L418.2,20.2"/>
			<path class="st0" d="M659.5,67.4c-26.4,0-40.4,11.6-48.5,22.4V75c0-1.9-1.3-3.2-3.2-3.2h-21.3c-1.9,0-3.2,1.4-3.2,3.2v177.6
				c0,1.9,1.3,3.2,3.2,3.2h21.6c1.9,0,3.2-1.3,3.2-3.2v-61.2c7.8,10.8,21.8,21.6,48.2,21.6c42.9,0,67.9-32.3,67.9-72.8
				S702.3,67.4,659.5,67.4z M654.6,189.8c-26.4,0-44.5-17.8-44.5-49.3s18.1-49.9,44.5-49.9s44.2,18.3,44.2,49.9
				C698.8,172,681,189.8,654.6,189.8z"/>
			<path class="st0" d="M812.3,67.4c-37.5,0-67.4,27-67.4,71.7c0,45.8,26.4,73.9,70.9,73.9c25.6,0,46.9-11.3,60.1-27
				c0.8-0.8,1.1-1.6,1.1-2.4s-0.3-1.6-1.1-2.4l-12.4-12.1c-0.8-0.8-1.6-1.1-2.4-1.1c-0.8,0-1.6,0.5-2.4,1.3
				c-10.2,11.1-23.5,20.5-42.6,20.5c-27.9,0-41.3-17.2-43.4-42h103.5c1.9,0,3.2-1.4,3.2-3.2v-5.4C879.4,98.1,854.6,67.4,812.3,67.4z
				 M773.7,126.7c3.2-22.5,15-37.2,38.4-37.2c24,0,36.7,13.7,38.5,37.2H773.7z"/>
			<path class="st0" d="M1264.8,71.7h-21.3c-1.9,0-3.2,1.3-3.2,3.2V90c-8.1-10.8-22.1-22.4-49.1-22.4c-42.3,0-67.4,32.3-67.4,72.8
				s25.1,72.8,67.4,72.8c27,0,41-11.6,49.1-22.4v14.9c0,1.9,1.3,3.2,3.2,3.2h21.3c1.9,0,3.2-1.3,3.2-3.2V75
				C1268.1,73.1,1266.7,71.7,1264.8,71.7z M1196.6,190.1c-26.4,0-44.2-18.3-44.2-49.9c0-31.5,17.8-49.3,44.2-49.3
				c26.4,0,44.5,17.8,44.5,49.3S1223.1,190.1,1196.6,190.1z"/>
			<path class="st0" d="M1302,69.6c-8.4,0-14.8,6.5-14.8,14.6c0,8.4,6.5,14.8,14.8,14.8c8.1,0,14.6-6.5,14.6-14.8
				C1316.6,76,1310.1,69.6,1302,69.6z M1302,96.3c-7,0-11.9-5.1-11.9-12.1c0-6.7,4.9-11.9,11.9-11.9c6.7,0,11.6,5.1,11.6,11.9
				C1313.6,91.1,1308.8,96.3,1302,96.3z"/>
			<path class="st0" d="M1304.7,85.3c2.2-0.6,2.9-2.5,2.9-4.1c0-2.2-1.6-4.3-4.6-4.3h-5.7c-0.3,0-0.5,0.3-0.5,0.5v13.5
				c0,0.3,0.3,0.5,0.5,0.5h1.6c0.3,0,0.5-0.3,0.5-0.5v-5.4h2.4l2.4,5.4c0.3,0.5,0.5,0.5,0.8,0.5h1.9c0.3,0,0.5-0.3,0.3-0.8
				L1304.7,85.3z M1302.6,83.1h-3v-3.8h3c1.6,0,2.2,1.1,2.2,1.9C1304.7,82.2,1304.2,83.1,1302.6,83.1z"/>
			<path class="st0" d="M1037.9,20.3h-21.6c-1.9,0-3.2,1.3-3.2,3.2v66.6c-8.1-10.8-21.8-22.4-48.8-22.4c-42.3,0-67.4,32.3-67.4,72.8
				s25.1,72.8,67.4,72.8c27,0,41-11.6,49.1-22.4v14.8c0,1.9,1.3,3.2,3.2,3.2h21.3c1.9,0,3.2-1.3,3.2-3.2V23.5
				C1041.1,21.6,1039.8,20.3,1037.9,20.3z M969.7,190.1c-26.4,0-44.2-18.3-44.2-49.9c0-31.5,17.8-49.3,44.2-49.3
				s44.5,17.8,44.5,49.3S996.1,190.1,969.7,190.1z"/>
			<path class="st0" d="M1096.6,20.3c1.9,0,3.2,1.3,3.2,3.2v22.1c0,1.9-1.3,3.2-3.2,3.2h-22.1c-1.9,0-3.2-1.3-3.2-3.2V23.5
				c0-1.9,1.3-3.2,3.2-3.2L1096.6,20.3"/>
			<path class="st0" d="M1096.4,71.7c1.9,0,3.2,1.3,3.2,3.2v130.8c0,1.9-1.3,3.2-3.2,3.2h-21.6c-1.9,0-3.2-1.3-3.2-3.2V75
				c0-1.9,1.3-3.2,3.2-3.2h21.6"/>
		</g>
	</g>
	<path class="st1" d="M181.6,228.5H47.5c-25.8,0-46.8-21-46.8-46.9V47.5c0-25.8,21-46.8,46.8-46.8h134.1c25.9,0,46.8,21,46.8,46.8
		v134.1C228.5,207.5,207.5,228.5,181.6,228.5z"/>
	<g>
		<g>
			<g>
				<path class="st2" d="M70.3,184.2v-22.1c0-1.8-1.4-3.2-3.2-3.2H45c-1.8,0-3.2,1.4-3.2,3.2v22.1c0,1.8,1.4,3.2,3.2,3.2h22.1
					C68.9,187.4,70.3,186,70.3,184.2z"/>
			</g>
		</g>
	</g>
	<path class="st2" d="M187.4,165.2V56.3c0-8.1-6.5-14.6-14.6-14.6H63.9c-2.2,0-3.5,0.8-4.9,2.2L37.3,65.8c-1.6,1.6-0.5,4,1.9,4h98.5
		l-61.1,61.1c-1.1,1.1-1.6,2.2-1.6,4V151c0,1.9,1.3,3.2,3.2,3.2h16.1c1.9,0,3-0.5,4-1.6l61.1-61.1V190c0,2.4,2.4,3.5,4,1.9
		l21.9-21.8C186.6,168.7,187.4,167.4,187.4,165.2z"/>
</g>
<g>
	<path class="st0" d="M330.7,385.1l-27.4-71.8c-0.1-0.4-0.2-0.7-0.2-1c0-0.6,0.4-1,1.3-1h6.7c0.7,0,1.2,0.1,1.5,0.3
		c0.3,0.2,0.5,0.6,0.7,1.1l24.2,65.3l24.1-65.3c0.2-0.6,0.5-0.9,0.7-1.1c0.3-0.2,0.7-0.3,1.2-0.3h6.9c0.7,0,1.1,0.3,1.1,0.9
		c0,0.2-0.1,0.7-0.4,1.5l-27.3,71.3c-0.4,1-1.1,1.5-2.2,1.5h-8.5C331.9,386.6,331.2,386.1,330.7,385.1z"/>
	<path class="st0" d="M383.2,312.7c0-0.4,0.1-0.7,0.4-0.9c0.2-0.2,0.5-0.4,0.9-0.4h6.9c0.4,0,0.7,0.1,0.9,0.4
		c0.2,0.2,0.4,0.6,0.4,0.9v8.6c0,0.4-0.1,0.7-0.4,0.9c-0.2,0.3-0.6,0.4-0.9,0.4h-6.9c-0.4,0-0.7-0.1-0.9-0.4
		c-0.2-0.2-0.4-0.5-0.4-0.9V312.7z M383.9,386.2c-0.2-0.2-0.4-0.5-0.4-0.9v-50c0-0.4,0.1-0.7,0.4-0.9c0.2-0.2,0.5-0.4,0.9-0.4h6.3
		c0.4,0,0.7,0.1,0.9,0.4c0.2,0.2,0.4,0.6,0.4,0.9v50c0,0.4-0.1,0.7-0.4,0.9c-0.2,0.2-0.6,0.4-0.9,0.4h-6.3
		C384.4,386.6,384.1,386.5,383.9,386.2z"/>
	<path class="st0" d="M433.3,386.6h-8.1c-0.7,0-1.3-0.5-1.7-1.4l-18.6-48.6c-0.3-0.8-0.4-1.3-0.4-1.5c0-0.7,0.4-1.1,1.2-1.1h6
		c0.7,0,1.2,0.1,1.4,0.3c0.2,0.2,0.5,0.6,0.8,1.3l15.7,42.3l15.5-42.4c0.2-0.6,0.5-1,0.7-1.2c0.3-0.2,0.7-0.3,1.4-0.3h5.3
		c0.8,0,1.2,0.4,1.2,1.1c0,0.2-0.1,0.7-0.4,1.5L435,385.2C434.6,386.1,434,386.6,433.3,386.6z"/>
	<path class="st0" d="M465.7,312.7c0-0.4,0.1-0.7,0.4-0.9c0.2-0.2,0.5-0.4,0.9-0.4h6.9c0.4,0,0.7,0.1,0.9,0.4
		c0.2,0.2,0.4,0.6,0.4,0.9v8.6c0,0.4-0.1,0.7-0.4,0.9c-0.2,0.3-0.6,0.4-0.9,0.4H467c-0.4,0-0.7-0.1-0.9-0.4
		c-0.2-0.2-0.4-0.5-0.4-0.9V312.7z M466.4,386.2c-0.2-0.2-0.4-0.5-0.4-0.9v-50c0-0.4,0.1-0.7,0.4-0.9c0.2-0.2,0.5-0.4,0.9-0.4h6.3
		c0.4,0,0.7,0.1,0.9,0.4c0.2,0.2,0.4,0.6,0.4,0.9v50c0,0.4-0.1,0.7-0.4,0.9c-0.2,0.2-0.6,0.4-0.9,0.4h-6.3
		C467,386.6,466.6,386.5,466.4,386.2z"/>
	<path class="st0" d="M493.2,386.2c-0.2-0.2-0.4-0.5-0.4-0.9v-50c0-0.4,0.1-0.7,0.4-0.9c0.2-0.2,0.5-0.4,0.9-0.4h6.1
		c0.4,0,0.7,0.1,0.9,0.4c0.2,0.2,0.4,0.6,0.4,0.9v4.8c1.4-2.3,3.2-4.2,5.4-5.6c2.2-1.4,5-2.1,8.5-2.1c3.8,0,7,0.9,9.5,2.8
		c2.5,1.8,4.3,4.1,5.3,6.6c1.3-2.5,3.4-4.7,6.2-6.6c2.8-1.9,6.1-2.8,9.9-2.8c5.8,0,10.3,1.6,13.5,4.9c3.2,3.2,4.7,7.6,4.7,13.2v34.9
		c0,0.4-0.1,0.7-0.4,0.9c-0.2,0.2-0.6,0.4-0.9,0.4h-6.2c-0.4,0-0.7-0.1-0.9-0.4c-0.3-0.2-0.4-0.5-0.4-0.9v-33.6
		c0-8.1-3.7-12.2-11-12.2c-3.8,0-6.8,1.3-8.7,3.8c-2,2.5-3,6-3,10.3v31.7c0,0.4-0.1,0.7-0.4,0.9c-0.2,0.2-0.6,0.4-0.9,0.4h-6.2
		c-0.4,0-0.7-0.1-0.9-0.4c-0.3-0.2-0.4-0.5-0.4-0.9v-33.6c0-8.1-3.8-12.2-11.3-12.2c-3.8,0-6.7,1.3-8.6,3.9c-1.9,2.6-2.8,6-2.8,10.2
		v31.7c0,0.4-0.1,0.7-0.4,0.9c-0.2,0.2-0.6,0.4-0.9,0.4h-6.3C493.7,386.6,493.4,386.5,493.2,386.2z"/>
	<path class="st0" d="M591.5,384.7c-4.2-2.3-7.5-5.7-9.9-9.9c-2.4-4.3-3.6-9.1-3.6-14.5c0-5.4,1.2-10.2,3.6-14.4
		c2.4-4.2,5.7-7.5,9.9-9.9c4.2-2.3,8.9-3.5,14.1-3.5c5.2,0,9.9,1.2,14.1,3.5c4.2,2.3,7.5,5.6,9.8,9.9c2.3,4.2,3.5,9,3.5,14.4
		c0,5.4-1.2,10.2-3.5,14.5c-2.3,4.3-5.6,7.6-9.8,9.9c-4.2,2.3-8.9,3.5-14.1,3.5C600.4,388.2,595.7,387,591.5,384.7z M592.2,375.1
		c3.4,3.8,7.8,5.7,13.4,5.7c3.6,0,6.8-0.9,9.6-2.7c2.8-1.8,4.9-4.2,6.5-7.4c1.5-3.1,2.3-6.7,2.3-10.7c0-6-1.7-10.9-5-14.7
		c-3.3-3.8-7.8-5.7-13.3-5.7c-5.6,0-10.1,1.9-13.4,5.6c-3.3,3.7-5,8.7-5,14.8C587.1,366.3,588.8,371.3,592.2,375.1z"/>
	<path class="st0" d="M650.5,384.5c-3.7-2.5-6.3-5.8-7.8-9.8l-0.1-0.5c0-0.5,0.3-0.9,1-1.1l4.8-1.9c0.4-0.1,0.7-0.2,0.7-0.2
		c0.6,0,1,0.4,1.4,1.1c2.7,6,7.7,9.1,15,9.1c3.8,0,6.8-0.8,9.1-2.3c2.3-1.5,3.4-3.5,3.4-5.9c0-2.3-0.8-4.1-2.5-5.3
		c-1.7-1.3-4.6-2.4-8.9-3.3l-4.6-1c-6.1-1.3-10.4-3.2-12.9-5.7c-2.5-2.5-3.7-5.8-3.7-9.9c0-2.8,0.8-5.4,2.5-7.7
		c1.6-2.3,3.9-4.1,6.8-5.5c2.9-1.3,6.1-2,9.8-2c5.4,0,9.8,1,13.2,2.9c3.4,2,5.8,4.5,7.3,7.6c0.1,0.1,0.1,0.3,0.1,0.5
		c0,0.5-0.2,0.9-0.6,1.1l-4.7,2.5c-0.1,0.1-0.4,0.1-0.6,0.1c-0.6,0-1-0.2-1.2-0.6c-1.4-2.3-3.1-4.1-5.2-5.2
		c-2.1-1.1-4.9-1.7-8.4-1.7c-3.3,0-6,0.7-7.9,2.1c-1.9,1.4-2.9,3.2-2.9,5.3c0,2.1,0.9,3.7,2.6,4.9c1.7,1.2,4.5,2.2,8.5,3l4.9,1.1
		c6,1.3,10.4,3.2,13.3,5.9c2.9,2.6,4.3,6.1,4.3,10.4c0,4.7-1.9,8.5-5.8,11.5c-3.8,2.9-9.1,4.4-15.8,4.4
		C659.2,388.2,654.2,386.9,650.5,384.5z"/>
	<path class="st0" d="M728.7,404.3c-0.2-0.2-0.4-0.6-0.4-0.9v-68.1c0-0.4,0.1-0.7,0.4-0.9c0.2-0.2,0.5-0.4,0.9-0.4h6.1
		c0.4,0,0.7,0.1,0.9,0.4c0.2,0.2,0.4,0.6,0.4,0.9v7.4c0.6-1.3,1.8-2.7,3.4-4.3c1.6-1.6,3.8-2.9,6.5-4.2c2.7-1.2,5.9-1.8,9.5-1.8
		c5,0,9.5,1.2,13.4,3.5c3.9,2.3,6.9,5.6,9.1,9.8c2.2,4.2,3.3,9.1,3.3,14.6c0,5.4-1.1,10.2-3.3,14.4c-2.2,4.2-5.2,7.5-9.2,9.9
		s-8.4,3.6-13.5,3.6c-4.9,0-9-0.9-12.3-2.8c-3.3-1.9-5.5-4.1-6.8-6.6v24.6c0,0.4-0.1,0.7-0.4,0.9c-0.2,0.2-0.6,0.4-0.9,0.4h-6.3
		C729.2,404.7,728.9,404.6,728.7,404.3z M738.9,371c1.6,3.1,3.7,5.4,6.5,7.1s6,2.6,9.6,2.6c5.4,0,9.8-1.8,13.1-5.5
		c3.3-3.7,5-8.6,5-14.9c0-6.3-1.7-11.2-5-14.9c-3.3-3.7-7.7-5.5-13.1-5.5c-5.5,0-9.9,1.9-13.3,5.6c-3.4,3.7-5.1,8.7-5.1,14.9
		C736.5,364.4,737.3,368,738.9,371z"/>
	<path class="st0" d="M805,384.7c-3.9-2.3-6.9-5.6-9.1-9.8c-2.2-4.2-3.3-9.1-3.3-14.7c0-5.4,1.1-10.2,3.2-14.4
		c2.1-4.2,5.2-7.5,9.1-9.9c3.9-2.3,8.4-3.5,13.4-3.5c4.8,0,8.9,1,12.2,2.9c3.3,1.9,5.7,4.2,7.3,6.7v-6.7c0-0.4,0.1-0.7,0.4-0.9
		c0.2-0.2,0.6-0.4,0.9-0.4h6.1c0.4,0,0.7,0.1,0.9,0.4c0.2,0.2,0.4,0.6,0.4,0.9v50c0,0.4-0.1,0.7-0.4,0.9c-0.2,0.2-0.6,0.4-0.9,0.4
		h-6.1c-0.4,0-0.7-0.1-0.9-0.4c-0.2-0.2-0.4-0.5-0.4-0.9V378c-0.6,1.2-1.8,2.6-3.4,4.2c-1.6,1.6-3.8,3-6.6,4.2
		c-2.7,1.2-5.9,1.8-9.4,1.8C813.4,388.2,808.9,387,805,384.7z M806.6,375.2c3.3,3.7,7.7,5.6,13.3,5.6c3.6,0,6.7-0.9,9.5-2.6
		c2.8-1.7,4.9-4.1,6.5-7.3c1.6-3.1,2.3-6.7,2.3-10.8c0-4-0.8-7.5-2.3-10.6c-1.6-3.1-3.7-5.5-6.5-7.2c-2.8-1.7-5.9-2.6-9.5-2.6
		c-5.5,0-10,1.8-13.3,5.5c-3.3,3.7-5,8.6-5,14.9C801.7,366.5,803.3,371.5,806.6,375.2z"/>
	<path class="st0" d="M864.7,386.2c-0.2-0.2-0.4-0.5-0.4-0.9v-50c0-0.4,0.1-0.7,0.4-0.9c0.2-0.2,0.5-0.4,0.9-0.4h6.1
		c0.4,0,0.7,0.1,0.9,0.4c0.2,0.2,0.4,0.6,0.4,0.9v9.1c1.3-2.9,3.5-5.5,6.4-7.6c2.9-2.2,6.5-3.3,10.7-3.3c0.9,0,1.4,0.2,1.7,0.5
		c0.2,0.3,0.4,0.8,0.4,1.4v5.8c0,0.4-0.1,0.7-0.4,0.9c-0.2,0.2-0.6,0.4-1,0.4h-1.1c-5.5,0-9.7,1.6-12.4,4.7
		c-2.7,3.1-4.1,7.6-4.1,13.3v24.8c0,0.4-0.1,0.7-0.4,0.9c-0.2,0.2-0.6,0.4-0.9,0.4h-6.3C865.3,386.6,865,386.5,864.7,386.2z"/>
	<path class="st0" d="M910.2,384.7c-3.9-2.3-6.9-5.6-9.1-9.8c-2.2-4.2-3.3-9.1-3.3-14.7c0-5.4,1.1-10.2,3.2-14.4
		c2.1-4.2,5.2-7.5,9.1-9.9c3.9-2.3,8.4-3.5,13.4-3.5c4.8,0,8.9,1,12.2,2.9s5.7,4.2,7.3,6.7v-6.7c0-0.4,0.1-0.7,0.4-0.9
		c0.2-0.2,0.6-0.4,0.9-0.4h6.1c0.4,0,0.7,0.1,0.9,0.4c0.2,0.2,0.4,0.6,0.4,0.9v50c0,0.4-0.1,0.7-0.4,0.9c-0.2,0.2-0.6,0.4-0.9,0.4
		h-6.1c-0.4,0-0.7-0.1-0.9-0.4c-0.2-0.2-0.4-0.5-0.4-0.9V378c-0.6,1.2-1.8,2.6-3.4,4.2c-1.6,1.6-3.8,3-6.6,4.2
		c-2.7,1.2-5.9,1.8-9.4,1.8C918.6,388.2,914.1,387,910.2,384.7z M911.9,375.2c3.3,3.7,7.7,5.6,13.3,5.6c3.6,0,6.7-0.9,9.5-2.6
		c2.8-1.7,4.9-4.1,6.5-7.3c1.6-3.1,2.3-6.7,2.3-10.8c0-4-0.8-7.5-2.3-10.6c-1.6-3.1-3.7-5.5-6.5-7.2c-2.8-1.7-5.9-2.6-9.5-2.6
		c-5.5,0-10,1.8-13.3,5.5c-3.3,3.7-5,8.6-5,14.9C906.9,366.5,908.6,371.5,911.9,375.2z"/>
	<path class="st0" d="M1018,386.6h-8.1c-0.7,0-1.3-0.5-1.7-1.4l-18.6-48.6c-0.3-0.8-0.4-1.3-0.4-1.5c0-0.7,0.4-1.1,1.2-1.1h6
		c0.7,0,1.2,0.1,1.4,0.3c0.2,0.2,0.5,0.6,0.8,1.3l15.7,42.3l15.5-42.4c0.2-0.6,0.5-1,0.7-1.2c0.3-0.2,0.7-0.3,1.4-0.3h5.3
		c0.8,0,1.2,0.4,1.2,1.1c0,0.2-0.1,0.7-0.4,1.5l-18.2,48.6C1019.3,386.1,1018.7,386.6,1018,386.6z"/>
	<path class="st0" d="M1050.4,312.7c0-0.4,0.1-0.7,0.4-0.9c0.2-0.2,0.6-0.4,0.9-0.4h6.9c0.4,0,0.7,0.1,0.9,0.4
		c0.2,0.2,0.4,0.6,0.4,0.9v8.6c0,0.4-0.1,0.7-0.4,0.9c-0.2,0.3-0.6,0.4-0.9,0.4h-6.9c-0.4,0-0.7-0.1-0.9-0.4
		c-0.2-0.2-0.4-0.5-0.4-0.9V312.7z M1051.1,386.2c-0.2-0.2-0.4-0.5-0.4-0.9v-50c0-0.4,0.1-0.7,0.4-0.9c0.2-0.2,0.5-0.4,0.9-0.4h6.3
		c0.4,0,0.7,0.1,0.9,0.4c0.2,0.2,0.4,0.6,0.4,0.9v50c0,0.4-0.1,0.7-0.4,0.9c-0.2,0.2-0.6,0.4-0.9,0.4h-6.3
		C1051.6,386.6,1051.3,386.5,1051.1,386.2z"/>
	<path class="st0" d="M1086.1,384.7c-3.9-2.3-6.9-5.6-9.1-9.8c-2.2-4.2-3.3-9.1-3.3-14.7c0-5.4,1.1-10.2,3.2-14.4
		c2.1-4.2,5.2-7.5,9.1-9.9c3.9-2.3,8.4-3.5,13.4-3.5c4.8,0,8.9,1,12.2,2.9s5.7,4.2,7.3,6.7v-6.7c0-0.4,0.1-0.7,0.4-0.9
		c0.2-0.2,0.6-0.4,0.9-0.4h6.1c0.4,0,0.7,0.1,0.9,0.4c0.2,0.2,0.4,0.6,0.4,0.9v50c0,0.4-0.1,0.7-0.4,0.9c-0.2,0.2-0.6,0.4-0.9,0.4
		h-6.1c-0.4,0-0.7-0.1-0.9-0.4c-0.2-0.2-0.4-0.5-0.4-0.9V378c-0.6,1.2-1.8,2.6-3.4,4.2c-1.6,1.6-3.8,3-6.6,4.2
		c-2.7,1.2-5.9,1.8-9.4,1.8C1094.5,388.2,1090,387,1086.1,384.7z M1087.8,375.2c3.3,3.7,7.7,5.6,13.3,5.6c3.6,0,6.7-0.9,9.5-2.6
		c2.8-1.7,4.9-4.1,6.5-7.3c1.6-3.1,2.3-6.7,2.3-10.8c0-4-0.8-7.5-2.3-10.6c-1.6-3.1-3.7-5.5-6.5-7.2c-2.8-1.7-5.9-2.6-9.5-2.6
		c-5.5,0-10,1.8-13.3,5.5c-3.3,3.7-5,8.6-5,14.9C1082.8,366.5,1084.5,371.5,1087.8,375.2z"/>
	<path class="st0" d="M1137.6,404.4c-0.3-0.2-0.4-0.5-0.4-1v-5c0-0.4,0.1-0.7,0.4-0.9c0.2-0.2,0.6-0.4,0.9-0.4h0.6
		c4.3,0,6.4-2.6,6.4-7.8v-54.1c0-0.4,0.1-0.7,0.4-0.9c0.2-0.2,0.5-0.4,0.9-0.4h6.3c0.4,0,0.7,0.1,0.9,0.4c0.2,0.2,0.4,0.6,0.4,0.9
		v52.5c0,11.3-4.7,17-14.1,17h-1.1C1138.4,404.7,1137.9,404.6,1137.6,404.4z M1145.2,312.7c0-0.4,0.1-0.7,0.4-0.9
		c0.2-0.2,0.6-0.4,0.9-0.4h6.9c0.4,0,0.7,0.1,0.9,0.4c0.2,0.2,0.4,0.6,0.4,0.9v8.6c0,0.4-0.1,0.7-0.4,0.9c-0.2,0.3-0.6,0.4-0.9,0.4
		h-6.9c-0.4,0-0.7-0.1-0.9-0.4c-0.2-0.2-0.4-0.5-0.4-0.9V312.7z"/>
	<path class="st0" d="M1180.9,384.7c-3.9-2.3-6.9-5.6-9.1-9.8c-2.2-4.2-3.3-9.1-3.3-14.7c0-5.4,1.1-10.2,3.2-14.4
		c2.1-4.2,5.2-7.5,9.1-9.9c3.9-2.3,8.4-3.5,13.4-3.5c4.8,0,8.9,1,12.2,2.9s5.7,4.2,7.3,6.7v-6.7c0-0.4,0.1-0.7,0.4-0.9
		c0.2-0.2,0.6-0.4,0.9-0.4h6.1c0.4,0,0.7,0.1,0.9,0.4c0.2,0.2,0.4,0.6,0.4,0.9v50c0,0.4-0.1,0.7-0.4,0.9c-0.2,0.2-0.6,0.4-0.9,0.4
		h-6.1c-0.4,0-0.7-0.1-0.9-0.4c-0.2-0.2-0.4-0.5-0.4-0.9V378c-0.6,1.2-1.8,2.6-3.4,4.2c-1.6,1.6-3.8,3-6.6,4.2
		c-2.7,1.2-5.9,1.8-9.4,1.8C1189.3,388.2,1184.8,387,1180.9,384.7z M1182.6,375.2c3.3,3.7,7.7,5.6,13.3,5.6c3.6,0,6.7-0.9,9.5-2.6
		c2.8-1.7,4.9-4.1,6.5-7.3c1.6-3.1,2.3-6.7,2.3-10.8c0-4-0.8-7.5-2.3-10.6c-1.6-3.1-3.7-5.5-6.5-7.2c-2.8-1.7-5.9-2.6-9.5-2.6
		c-5.5,0-10,1.8-13.3,5.5c-3.3,3.7-5,8.6-5,14.9C1177.6,366.5,1179.3,371.5,1182.6,375.2z"/>
	<path class="st0" d="M1240.7,386.2c-0.2-0.2-0.4-0.5-0.4-0.9v-50c0-0.4,0.1-0.7,0.4-0.9c0.2-0.2,0.5-0.4,0.9-0.4h6.1
		c0.4,0,0.7,0.1,0.9,0.4c0.2,0.2,0.4,0.6,0.4,0.9v9.1c1.3-2.9,3.5-5.5,6.4-7.6c2.9-2.2,6.5-3.3,10.7-3.3c0.9,0,1.4,0.2,1.7,0.5
		c0.2,0.3,0.4,0.8,0.4,1.4v5.8c0,0.4-0.1,0.7-0.4,0.9c-0.2,0.2-0.6,0.4-1,0.4h-1.1c-5.5,0-9.7,1.6-12.4,4.7
		c-2.7,3.1-4.1,7.6-4.1,13.3v24.8c0,0.4-0.1,0.7-0.4,0.9c-0.2,0.2-0.6,0.4-0.9,0.4h-6.3C1241.2,386.6,1240.9,386.5,1240.7,386.2z"/>
</g>
</svg>
