<?xml version="1.0" encoding="utf-8"?>
<!-- Generator: Adobe Illustrator 27.0.0, SVG Export Plug-In . SVG Version: 6.00 Build 0)  -->
<svg version="1.1" id="Expedia_Horizontal_Logo_Full_Colour_Dark_Blue"
	 xmlns="http://www.w3.org/2000/svg" xmlns:xlink="http://www.w3.org/1999/xlink" x="0px" y="0px" viewBox="0 0 1315.9 255.1"
	 style="enable-background:new 0 0 1315.9 255.1;" xml:space="preserve">
<style type="text/css">
	.st0{fill:#FFFFFF;}
	.st1{fill:#FDDB32;}
	.st2{fill:#191E3B;}
</style>
<g>
	<g>
		<g>
			<path class="st0" d="M517.1,136.4l44.6-61.6c1.3-1.9,0.3-3.8-1.9-3.8h-24.3c-1.3,0-3,0.5-3.8,1.9l-29.4,42.9l-30.1-42.9
				c-0.8-1.3-2.4-1.9-3.8-1.9h-25.9c-1.3,0-2.2,1.1-2.2,2.2c0,0.5,0,1.1,0.5,1.6l44.7,61.8l-49.3,67.8c-1.3,1.9-0.3,3.8,1.6,3.8
				h24.5c1.3,0,3-0.5,3.8-1.9l34.1-49.1l34.6,49.1c0.8,1.4,2.4,1.9,3.8,1.9H565c1.3,0,2.2-1.1,2.2-2.2c0-0.5-0.3-1.1-0.5-1.6
				L517.1,136.4z"/>
			<path class="st0" d="M417.5,19.5c1.9,0,3.2,1.3,3.2,3.2V41c0,1.9-1.3,3.2-3.2,3.2h-87.1v54.4h78.2c1.9,0,3.2,1.3,3.2,3.2v18.1
				c0,1.9-1.3,3.2-3.2,3.2h-78.2v59.6h87.1c1.9,0,3.2,1.3,3.2,3.2V205c0,1.9-1.3,3.2-3.2,3.2H315.6c-7.8,0-13.7-5.9-13.7-13.7V33.3
				c0-7.8,5.9-13.7,13.7-13.7L417.5,19.5"/>
			<path class="st0" d="M658.8,66.7c-26.4,0-40.4,11.6-48.5,22.4V74.3c0-1.9-1.3-3.2-3.2-3.2h-21.3c-1.9,0-3.2,1.4-3.2,3.2v177.6
				c0,1.9,1.3,3.2,3.2,3.2h21.6c1.9,0,3.2-1.3,3.2-3.2v-61.2c7.8,10.8,21.8,21.6,48.2,21.6c42.9,0,67.9-32.3,67.9-72.8
				S701.6,66.7,658.8,66.7z M653.9,189.1c-26.4,0-44.5-17.8-44.5-49.3s18.1-49.9,44.5-49.9s44.2,18.3,44.2,49.9
				C698.1,171.3,680.3,189.1,653.9,189.1z"/>
			<path class="st0" d="M811.6,66.7c-37.5,0-67.4,27-67.4,71.7c0,45.8,26.4,73.9,70.9,73.9c25.6,0,46.9-11.3,60.1-27
				c0.8-0.8,1.1-1.6,1.1-2.4s-0.3-1.6-1.1-2.4l-12.4-12.1c-0.8-0.8-1.6-1.1-2.4-1.1c-0.8,0-1.6,0.5-2.4,1.3
				c-10.2,11.1-23.5,20.5-42.6,20.5c-27.9,0-41.3-17.2-43.4-42h103.5c1.9,0,3.2-1.4,3.2-3.2v-5.4C878.7,97.4,853.9,66.7,811.6,66.7z
				 M773,126c3.2-22.5,15-37.2,38.4-37.2c24,0,36.7,13.7,38.5,37.2H773z"/>
			<path class="st0" d="M1264.1,71h-21.3c-1.9,0-3.2,1.3-3.2,3.2v15.1c-8.1-10.8-22.1-22.4-49.1-22.4c-42.3,0-67.4,32.3-67.4,72.8
				s25.1,72.8,67.4,72.8c27,0,41-11.6,49.1-22.4V205c0,1.9,1.3,3.2,3.2,3.2h21.3c1.9,0,3.2-1.3,3.2-3.2V74.3
				C1267.4,72.4,1266,71,1264.1,71z M1195.9,189.4c-26.4,0-44.2-18.3-44.2-49.9c0-31.5,17.8-49.3,44.2-49.3
				c26.4,0,44.5,17.8,44.5,49.3S1222.4,189.4,1195.9,189.4z"/>
			<path class="st0" d="M1301.3,68.9c-8.4,0-14.8,6.5-14.8,14.6c0,8.4,6.5,14.8,14.8,14.8c8.1,0,14.6-6.5,14.6-14.8
				C1315.9,75.3,1309.4,68.9,1301.3,68.9z M1301.3,95.6c-7,0-11.9-5.1-11.9-12.1c0-6.7,4.9-11.9,11.9-11.9c6.7,0,11.6,5.1,11.6,11.9
				C1312.9,90.4,1308.1,95.6,1301.3,95.6z"/>
			<path class="st0" d="M1304,84.6c2.2-0.6,2.9-2.5,2.9-4.1c0-2.2-1.6-4.3-4.6-4.3h-5.7c-0.3,0-0.5,0.3-0.5,0.5v13.5
				c0,0.3,0.3,0.5,0.5,0.5h1.6c0.3,0,0.5-0.3,0.5-0.5v-5.4h2.4l2.4,5.4c0.3,0.5,0.5,0.5,0.8,0.5h1.9c0.3,0,0.5-0.3,0.3-0.8
				L1304,84.6z M1301.9,82.4h-3v-3.8h3c1.6,0,2.2,1.1,2.2,1.9C1304,81.5,1303.5,82.4,1301.9,82.4z"/>
			<path class="st0" d="M1037.2,19.6h-21.6c-1.9,0-3.2,1.3-3.2,3.2v66.6c-8.1-10.8-21.8-22.4-48.8-22.4c-42.3,0-67.4,32.3-67.4,72.8
				s25.1,72.8,67.4,72.8c27,0,41-11.6,49.1-22.4V205c0,1.9,1.3,3.2,3.2,3.2h21.3c1.9,0,3.2-1.3,3.2-3.2V22.8
				C1040.4,20.9,1039.1,19.6,1037.2,19.6z M969,189.4c-26.4,0-44.2-18.3-44.2-49.9c0-31.5,17.8-49.3,44.2-49.3s44.5,17.8,44.5,49.3
				S995.4,189.4,969,189.4z"/>
			<path class="st0" d="M1095.9,19.6c1.9,0,3.2,1.3,3.2,3.2v22.1c0,1.9-1.3,3.2-3.2,3.2h-22.1c-1.9,0-3.2-1.3-3.2-3.2V22.8
				c0-1.9,1.3-3.2,3.2-3.2L1095.9,19.6"/>
			<path class="st0" d="M1095.7,71c1.9,0,3.2,1.3,3.2,3.2V205c0,1.9-1.3,3.2-3.2,3.2h-21.6c-1.9,0-3.2-1.3-3.2-3.2V74.3
				c0-1.9,1.3-3.2,3.2-3.2h21.6"/>
		</g>
	</g>
	<path class="st1" d="M180.9,227.8H46.8C21,227.8,0,206.8,0,180.9V46.8C0,21,21,0,46.8,0h134.1c25.9,0,46.8,21,46.8,46.8v134.1
		C227.8,206.8,206.8,227.8,180.9,227.8z"/>
	<g>
		<g>
			<g>
				<path class="st2" d="M69.6,183.5v-22.1c0-1.8-1.4-3.2-3.2-3.2H44.3c-1.8,0-3.2,1.4-3.2,3.2v22.1c0,1.8,1.4,3.2,3.2,3.2h22.1
					C68.2,186.7,69.6,185.3,69.6,183.5z"/>
			</g>
		</g>
	</g>
	<path class="st2" d="M186.7,164.5V55.6c0-8.1-6.5-14.6-14.6-14.6H63.2c-2.2,0-3.5,0.8-4.9,2.2L36.6,65.1c-1.6,1.6-0.5,4,1.9,4H137
		l-61.1,61.1c-1.1,1.1-1.6,2.2-1.6,4v16.1c0,1.9,1.3,3.2,3.2,3.2h16.1c1.9,0,3-0.5,4-1.6l61.1-61.1v98.5c0,2.4,2.4,3.5,4,1.9
		l21.9-21.8C185.9,168,186.7,166.7,186.7,164.5z"/>
</g>
</svg>
