<svg width="97" height="200" viewBox="0 0 97 200" fill="none" xmlns="http://www.w3.org/2000/svg">
<path d="M87.5228 1.11272C89.5568 1.11272 91.6621 1.92055 93.2951 3.33148C94.966 4.77356 95.8861 6.60732 95.8861 8.49672V191.503C95.8861 193.393 94.966 195.226 93.2951 196.669C91.6621 198.077 89.5568 198.887 87.5228 198.887H8.95145C6.96422 198.887 4.96808 198.088 3.4732 196.697C1.95158 195.28 1.11392 193.435 1.11392 191.503V8.49672C1.11392 6.56504 1.95158 4.72015 3.4732 3.30255C4.96808 1.91165 6.96422 1.11272 8.95145 1.11272H87.5228ZM87.5228 0H8.95145C4.25294 0 0 3.80327 0 8.49672V191.503C0 196.195 4.25294 200 8.95145 200H87.5228C92.2191 200 97 196.197 97 191.503V8.49672C97 3.8055 92.2191 0 87.5228 0Z" fill="#FDDB32"/>
</svg>
